# xmcd
#
# Track frame offsets:
#	150
#	12976
#	29614
#	43260
#	54824
#	68850
#	85725
#	100949
#	116175
#	140400
#	152175
#	165300
#	184349
#	200250
#	217799
#	234150
#	249223
#
# Disc length: 3589 seconds
#
# Revision: 1
# Processed by: cddbd v1.5.2PL0 Copyright (c) Steve Scherf et al.
# Submitted via: audiograbber 1.83.01
#
DISCID=dc0e0311
DTITLE=Various Artist - CMAA Winners 2015 [Disc 2]
DYEAR=2015
DGENRE=Country
TTITLE0=John Williamson - Clouds Over Tamworth
TTITLE1=Mustered Courage - Candle Creek
TTITLE2=8 Ball Aitken and Troy Cassar-Daley - Old Hickory
TTITLE3=Terry Bennetts/Ian Simpson - Riders Of The Kimberley
TTITLE4=Davidson Brothers - Take Me To The Mountains
TTITLE5=Simply Bushed - Making Hay
TTITLE6=Dean Perrett - Bloodwood and Clover
TTITLE7=Lou Bradley - One Of Those Nights
TTITLE8=Luke O'Shea and Aleyce Simmonds - Truckstop Flowers
TTITLE9=Kristy Cox - One Heartbreak Away
TTITLE10=Tom Maxwell - That Day In Cunnamulla
TTITLE11=Allan Caswell - When We Were Young And Stupid
TTITLE12=Dianne Lindsay - Jack Bridle
TTITLE13=Graham Rodger - He's Droving Once Again
TTITLE14=Michael Fix - Young Gun
TTITLE15=John Williamson and Beccy Cole - It's All About Love
TTITLE16=Dean Perrett and Troy Cassar-Daley - My Country My Land
EXTD=
EXTT0=
EXTT1=
EXTT2=
EXTT3=
EXTT4=
EXTT5=
EXTT6=
EXTT7=
EXTT8=
EXTT9=
EXTT10=
EXTT11=
EXTT12=
EXTT13=
EXTT14=
EXTT15=
EXTT16=
PLAYORDER=
